# xmcd
#
# Track frame offsets: 
#        150
#        19360
#        40231
#        57660
#        78189
#        94652
#        115438
#        130379
#        148741
#        165700
#        184399
#        199917
#        220338
#        243833
#        264416
#        281002
#        306464
#
# Disc length: 4348 seconds
#
# Revision: 0
# Processed by: cddbd v1.5.2PL0 Copyright (c) Steve Scherf et al.
# Submitted via: ExactAudioCopy v0.95a5
#
DISCID=0910fa11
DTITLE=Laura Pausini - Io canto
DYEAR=2006
DGENRE=Pop
TTITLE0=Io canto
TTITLE1=Due
TTITLE2=Scrivimi
TTITLE3=Il mio canto libero (with Juanes)
TTITLE4=Destinazione paradiso
TTITLE5=Stella gemella
TTITLE6=Come il sole all'improvviso (with Johnny Hallyday)
TTITLE7=Cinque giorni
TTITLE8=La mia banda suona il rock
TTITLE9=Spaccacuore
TTITLE10=Anima fragile
TTITLE11=Non me lo so spiegare (with Tiziano Ferro)
TTITLE12=Nei giardini che nessuno sa
TTITLE13=In una stanza quasi rosa
TTITLE14=Quando
TTITLE15=Strada facendo
TTITLE16=Je chante (Io canto)
EXTD=
EXTT0=
EXTT1=
EXTT2=
EXTT3=
EXTT4=
EXTT5=
EXTT6=
EXTT7=
EXTT8=
EXTT9=
EXTT10=
EXTT11=
EXTT12=
EXTT13=
EXTT14=
EXTT15=
EXTT16=
PLAYORDER=
